<svg xmlns="http://www.w3.org/2000/svg" xmlns:xlink="http://www.w3.org/1999/xlink" version="1.1" data-diagram-type="ACTIVITY" style="width:937px;height:897px;background:#FFFFFF;" width="937px" height="897px" viewBox="0 0 937 897" zoomAndPan="magnify" preserveAspectRatio="none" contentStyleType="text/css"><?plantuml 1.2026.8?><defs/><g font-family="sans-serif" lengthAdjust="spacing"><g class="title" data-source-line="2"><text x="333.228" y="28.923" fill="#000" font-size="15" textLength="269.216" font-weight="700" font-family="'DejaVu Sans'">Message lookup and formatting</text></g><ellipse cx="466.336" cy="58.461" rx="10" ry="10" fill="#FFF" style="stroke:#000;stroke-width:1;"/><rect x="344.059" y="88.461" width="244.555" height="33.969" fill="#FFF" style="stroke:#000;stroke-width:1;" rx="4" ry="4"/><text x="354.059" y="109.6" fill="#000" font-size="12" textLength="224.555" font-family="'DejaVu Sans'">gettext(message, **params) is called</text><polygon points="32,142.43,185.311,142.43,197.311,154.43,185.311,166.43,32,166.43,20,154.43,32,142.43" fill="#FFF" style="stroke:#000;stroke-width:1;stroke-linejoin:miter;stroke-miterlimit:10;"/><text x="112.655" y="177.568" fill="#000" font-size="12" textLength="20.736" font-family="'DejaVu Sans'">yes</text><text x="32" y="158.584" fill="#000" font-size="12" textLength="153.311" font-family="'DejaVu Sans'">inside use_locale() block?</text><rect x="20.175" y="200.398" width="176.961" height="33.969" fill="#FFF" style="stroke:#000;stroke-width:1;" rx="4" ry="4"/><text x="30.175" y="221.537" fill="#000" font-size="12" textLength="156.961" font-family="'DejaVu Sans'">use that block's translator</text><polygon points="249.095,142.43,351.851,142.43,363.851,154.43,351.851,166.43,249.095,166.43,237.095,154.43,249.095,142.43" fill="#FFF" style="stroke:#000;stroke-width:1;stroke-linejoin:miter;stroke-miterlimit:10;"/><text x="304.473" y="177.568" fill="#000" font-size="12" textLength="20.736" font-family="'DejaVu Sans'">yes</text><text x="249.095" y="158.584" fill="#000" font-size="12" textLength="102.756" font-family="'DejaVu Sans'">inside a request?</text><rect x="207.311" y="200.398" width="186.324" height="33.969" fill="#FFF" style="stroke:#000;stroke-width:1;" rx="4" ry="4"/><text x="217.311" y="221.537" fill="#000" font-size="12" textLength="166.324" font-family="'DejaVu Sans'">use the request's translator</text><polygon points="425.635,142.43,649.527,142.43,661.527,154.43,649.527,166.43,425.635,166.43,413.635,154.43,425.635,142.43" fill="#FFF" style="stroke:#000;stroke-width:1;stroke-linejoin:miter;stroke-miterlimit:10;"/><text x="541.581" y="177.568" fill="#000" font-size="12" textLength="20.736" font-family="'DejaVu Sans'">yes</text><text x="425.635" y="158.584" fill="#000" font-size="12" textLength="223.893" font-family="'DejaVu Sans'">a process default Localization exists?</text><text x="661.527" y="151.6" fill="#000" font-size="12" textLength="14.947" font-family="'DejaVu Sans'">no</text><rect x="433.887" y="200.398" width="207.389" height="33.969" fill="#FFF" style="stroke:#000;stroke-width:1;" rx="4" ry="4"/><text x="443.887" y="221.537" fill="#000" font-size="12" textLength="187.389" font-family="'DejaVu Sans'">use its default-locale translator</text><rect x="681.527" y="181.922" width="241.145" height="33.969" fill="#FFF" style="stroke:#000;stroke-width:1;" rx="4" ry="4"/><text x="691.527" y="203.061" fill="#000" font-size="12" textLength="221.145" font-family="'DejaVu Sans'">raise LocalizationNotConfiguredError</text><ellipse cx="802.1" cy="261.891" rx="11" ry="11" fill="none" style="stroke:#000;stroke-width:1;"/><ellipse cx="802.1" cy="261.891" rx="6" ry="6" fill="#FFF" style="stroke:#000;stroke-width:1;"/><path d="M650.692,303.922 L650.692,325.875 L630.692,329.875 L650.692,333.875 L650.692,355.828 A0,0 0 0 0 650.692,355.828 L845.329,355.828 A0,0 0 0 0 845.329,355.828 L845.329,313.922 L835.329,303.922 L650.692,303.922 A0,0 0 0 0 650.692,303.922" style="stroke:#C8B560;stroke-width:1;" fill="#FFF8DC"/><path d="M835.329,303.922 L835.329,313.922 L845.329,313.922 L835.329,303.922" style="stroke:#C8B560;stroke-width:1;" fill="#FFF8DC"/><text x="656.692" y="320.061" fill="#000" font-size="12" textLength="95.672" font-family="'DejaVu Sans'">Chain for pt-BR:</text><text x="656.692" y="334.029" fill="#000" font-size="12" textLength="153.223" font-family="'DejaVu Sans'">pt-BR catalog, pt catalog,</text><text x="656.692" y="347.998" fill="#000" font-size="12" textLength="173.637" font-family="'DejaVu Sans'">default locale catalog, msgid</text><rect x="301.979" y="312.891" width="328.713" height="33.969" fill="#FFF" style="stroke:#000;stroke-width:1;" rx="4" ry="4"/><text x="311.979" y="334.029" fill="#000" font-size="12" textLength="308.713" font-family="'DejaVu Sans'">look up the message in the domain's fallback chain</text><rect x="364.481" y="375.828" width="203.709" height="47.938" fill="#FFF" style="stroke:#000;stroke-width:1;" rx="4" ry="4"/><text x="374.481" y="396.967" fill="#000" font-size="12" textLength="183.709" font-family="'DejaVu Sans'">take the first translation found</text><text x="374.481" y="410.936" fill="#000" font-size="12" textLength="130.594" font-family="'DejaVu Sans'">(or the msgid if none)</text><rect x="349.115" y="492.75" width="234.441" height="33.969" fill="#FFF" style="stroke:#000;stroke-width:1;" rx="4" ry="4"/><text x="359.115" y="513.889" fill="#000" font-size="12" textLength="214.441" font-family="'DejaVu Sans'">replace each {name} with its value</text><rect x="402.274" y="595.703" width="128.123" height="33.969" fill="#FFF" style="stroke:#000;stroke-width:1;" rx="4" ry="4"/><text x="412.274" y="616.842" fill="#000" font-size="12" textLength="108.123" font-family="'DejaVu Sans'">leave it as written</text><rect x="325.675" y="664.672" width="281.322" height="33.969" fill="#FFF" style="stroke:#000;stroke-width:1;" rx="4" ry="4"/><text x="335.675" y="685.811" fill="#000" font-size="12" textLength="261.322" font-family="'DejaVu Sans'">log a warning once per message and locale</text><polygon points="382.128,546.719,550.544,546.719,562.544,558.719,550.544,570.719,382.128,570.719,370.128,558.719,382.128,546.719" fill="#FFF" style="stroke:#000;stroke-width:1;stroke-linejoin:miter;stroke-miterlimit:10;"/><text x="470.336" y="581.857" fill="#000" font-size="12" textLength="20.736" font-family="'DejaVu Sans'">yes</text><text x="382.128" y="562.873" fill="#000" font-size="12" textLength="168.416" font-family="'DejaVu Sans'">a placeholder has no value?</text><polygon points="466.336,718.641,478.336,730.641,466.336,742.641,454.336,730.641,466.336,718.641" fill="#FFF" style="stroke:#000;stroke-width:1;stroke-linejoin:miter;stroke-miterlimit:10;"/><polygon points="379.081,443.766,553.591,443.766,565.591,455.766,553.591,467.766,379.081,467.766,367.081,455.766,379.081,443.766" fill="#FFF" style="stroke:#000;stroke-width:1;stroke-linejoin:miter;stroke-miterlimit:10;"/><text x="470.336" y="478.904" fill="#000" font-size="12" textLength="20.736" font-family="'DejaVu Sans'">yes</text><text x="379.081" y="459.92" fill="#000" font-size="12" textLength="174.51" font-family="'DejaVu Sans'">params given or plural form?</text><polygon points="466.336,762.641,478.336,774.641,466.336,786.641,454.336,774.641,466.336,762.641" fill="#FFF" style="stroke:#000;stroke-width:1;stroke-linejoin:miter;stroke-miterlimit:10;"/><rect x="412.145" y="806.641" width="108.383" height="33.969" fill="#FFF" style="stroke:#000;stroke-width:1;" rx="4" ry="4"/><text x="422.145" y="827.779" fill="#000" font-size="12" textLength="88.383" font-family="'DejaVu Sans'">return the text</text><ellipse cx="466.336" cy="871.609" rx="11" ry="11" fill="none" style="stroke:#000;stroke-width:1;"/><ellipse cx="466.336" cy="871.609" rx="6" ry="6" fill="#FFF" style="stroke:#000;stroke-width:1;"/><line x1="466.336" y1="68.461" x2="466.336" y2="88.461" style="stroke:#3B4252;stroke-width:1;"/><polygon points="462.336,78.461,466.336,88.461,470.336,78.461,466.336,82.461" fill="#3B4252" style="stroke:#3B4252;stroke-width:1;stroke-linejoin:miter;stroke-miterlimit:10;"/><line x1="802.1" y1="215.891" x2="802.1" y2="250.891" style="stroke:#3B4252;stroke-width:1;"/><polygon points="798.1,240.891,802.1,250.891,806.1,240.891,802.1,244.891" fill="#3B4252" style="stroke:#3B4252;stroke-width:1;stroke-linejoin:miter;stroke-miterlimit:10;"/><line x1="108.655" y1="166.43" x2="108.655" y2="200.398" style="stroke:#3B4252;stroke-width:1;"/><polygon points="104.655,190.398,108.655,200.398,112.655,190.398,108.655,194.398" fill="#3B4252" style="stroke:#3B4252;stroke-width:1;stroke-linejoin:miter;stroke-miterlimit:10;"/><line x1="108.655" y1="234.367" x2="108.655" y2="292.891" style="stroke:#3B4252;stroke-width:1;"/><polygon points="104.655,282.891,108.655,292.891,112.655,282.891,108.655,286.891" fill="#3B4252" style="stroke:#3B4252;stroke-width:1;stroke-linejoin:miter;stroke-miterlimit:10;"/><line x1="300.473" y1="166.43" x2="300.473" y2="200.398" style="stroke:#3B4252;stroke-width:1;"/><polygon points="296.473,190.398,300.473,200.398,304.473,190.398,300.473,194.398" fill="#3B4252" style="stroke:#3B4252;stroke-width:1;stroke-linejoin:miter;stroke-miterlimit:10;"/><line x1="300.473" y1="234.367" x2="300.473" y2="292.891" style="stroke:#3B4252;stroke-width:1;"/><polygon points="296.473,282.891,300.473,292.891,304.473,282.891,300.473,286.891" fill="#3B4252" style="stroke:#3B4252;stroke-width:1;stroke-linejoin:miter;stroke-miterlimit:10;"/><line x1="537.581" y1="166.43" x2="537.581" y2="200.398" style="stroke:#3B4252;stroke-width:1;"/><polygon points="533.581,190.398,537.581,200.398,541.581,190.398,537.581,194.398" fill="#3B4252" style="stroke:#3B4252;stroke-width:1;stroke-linejoin:miter;stroke-miterlimit:10;"/><line x1="537.581" y1="234.367" x2="537.581" y2="292.891" style="stroke:#3B4252;stroke-width:1;"/><polygon points="533.581,282.891,537.581,292.891,541.581,282.891,537.581,286.891" fill="#3B4252" style="stroke:#3B4252;stroke-width:1;stroke-linejoin:miter;stroke-miterlimit:10;"/><line x1="197.311" y1="154.43" x2="237.095" y2="154.43" style="stroke:#3B4252;stroke-width:1;"/><polygon points="227.095,150.43,237.095,154.43,227.095,158.43,231.095,154.43" fill="#3B4252" style="stroke:#3B4252;stroke-width:1;stroke-linejoin:miter;stroke-miterlimit:10;"/><line x1="363.851" y1="154.43" x2="413.635" y2="154.43" style="stroke:#3B4252;stroke-width:1;"/><polygon points="403.635,150.43,413.635,154.43,403.635,158.43,407.635,154.43" fill="#3B4252" style="stroke:#3B4252;stroke-width:1;stroke-linejoin:miter;stroke-miterlimit:10;"/><line x1="466.336" y1="122.43" x2="466.336" y2="127.43" style="stroke:#3B4252;stroke-width:1;"/><line x1="466.336" y1="127.43" x2="108.655" y2="127.43" style="stroke:#3B4252;stroke-width:1;"/><line x1="108.655" y1="127.43" x2="108.655" y2="142.43" style="stroke:#3B4252;stroke-width:1;"/><polygon points="104.655,132.43,108.655,142.43,112.655,132.43,108.655,136.43" fill="#3B4252" style="stroke:#3B4252;stroke-width:1;stroke-linejoin:miter;stroke-miterlimit:10;"/><line x1="661.527" y1="154.43" x2="802.1" y2="154.43" style="stroke:#3B4252;stroke-width:1;"/><line x1="802.1" y1="154.43" x2="802.1" y2="181.922" style="stroke:#3B4252;stroke-width:1;"/><polygon points="798.1,171.922,802.1,181.922,806.1,171.922,802.1,175.922" fill="#3B4252" style="stroke:#3B4252;stroke-width:1;stroke-linejoin:miter;stroke-miterlimit:10;"/><line x1="108.655" y1="292.891" x2="537.581" y2="292.891" style="stroke:#3B4252;stroke-width:1;"/><line x1="466.336" y1="292.891" x2="466.336" y2="312.891" style="stroke:#3B4252;stroke-width:1;"/><polygon points="462.336,302.891,466.336,312.891,470.336,302.891,466.336,306.891" fill="#3B4252" style="stroke:#3B4252;stroke-width:1;stroke-linejoin:miter;stroke-miterlimit:10;"/><line x1="466.336" y1="346.859" x2="466.336" y2="375.828" style="stroke:#3B4252;stroke-width:1;"/><polygon points="462.336,365.828,466.336,375.828,470.336,365.828,466.336,369.828" fill="#3B4252" style="stroke:#3B4252;stroke-width:1;stroke-linejoin:miter;stroke-miterlimit:10;"/><line x1="466.336" y1="629.672" x2="466.336" y2="664.672" style="stroke:#3B4252;stroke-width:1;"/><polygon points="462.336,654.672,466.336,664.672,470.336,654.672,466.336,658.672" fill="#3B4252" style="stroke:#3B4252;stroke-width:1;stroke-linejoin:miter;stroke-miterlimit:10;"/><line x1="466.336" y1="570.719" x2="466.336" y2="595.703" style="stroke:#3B4252;stroke-width:1;"/><polygon points="462.336,585.703,466.336,595.703,470.336,585.703,466.336,589.703" fill="#3B4252" style="stroke:#3B4252;stroke-width:1;stroke-linejoin:miter;stroke-miterlimit:10;"/><line x1="562.544" y1="558.719" x2="616.997" y2="558.719" style="stroke:#3B4252;stroke-width:1;"/><polygon points="612.997,637.172,616.997,647.172,620.997,637.172,616.997,641.172" fill="#3B4252" style="stroke:#3B4252;stroke-width:1;stroke-linejoin:miter;stroke-miterlimit:10;"/><line x1="616.997" y1="558.719" x2="616.997" y2="730.641" style="stroke:#3B4252;stroke-width:1;"/><line x1="616.997" y1="730.641" x2="478.336" y2="730.641" style="stroke:#3B4252;stroke-width:1;"/><polygon points="488.336,726.641,478.336,730.641,488.336,734.641,484.336,730.641" fill="#3B4252" style="stroke:#3B4252;stroke-width:1;stroke-linejoin:miter;stroke-miterlimit:10;"/><line x1="466.336" y1="698.641" x2="466.336" y2="718.641" style="stroke:#3B4252;stroke-width:1;"/><polygon points="462.336,708.641,466.336,718.641,470.336,708.641,466.336,712.641" fill="#3B4252" style="stroke:#3B4252;stroke-width:1;stroke-linejoin:miter;stroke-miterlimit:10;"/><line x1="466.336" y1="526.719" x2="466.336" y2="546.719" style="stroke:#3B4252;stroke-width:1;"/><polygon points="462.336,536.719,466.336,546.719,470.336,536.719,466.336,540.719" fill="#3B4252" style="stroke:#3B4252;stroke-width:1;stroke-linejoin:miter;stroke-miterlimit:10;"/><line x1="466.336" y1="467.766" x2="466.336" y2="492.75" style="stroke:#3B4252;stroke-width:1;"/><polygon points="462.336,482.75,466.336,492.75,470.336,482.75,466.336,486.75" fill="#3B4252" style="stroke:#3B4252;stroke-width:1;stroke-linejoin:miter;stroke-miterlimit:10;"/><line x1="565.591" y1="455.766" x2="638.997" y2="455.766" style="stroke:#3B4252;stroke-width:1;"/><polygon points="634.997,602.688,638.997,612.688,642.997,602.688,638.997,606.688" fill="#3B4252" style="stroke:#3B4252;stroke-width:1;stroke-linejoin:miter;stroke-miterlimit:10;"/><line x1="638.997" y1="455.766" x2="638.997" y2="774.641" style="stroke:#3B4252;stroke-width:1;"/><line x1="638.997" y1="774.641" x2="478.336" y2="774.641" style="stroke:#3B4252;stroke-width:1;"/><polygon points="488.336,770.641,478.336,774.641,488.336,778.641,484.336,774.641" fill="#3B4252" style="stroke:#3B4252;stroke-width:1;stroke-linejoin:miter;stroke-miterlimit:10;"/><line x1="466.336" y1="742.641" x2="466.336" y2="762.641" style="stroke:#3B4252;stroke-width:1;"/><polygon points="462.336,752.641,466.336,762.641,470.336,752.641,466.336,756.641" fill="#3B4252" style="stroke:#3B4252;stroke-width:1;stroke-linejoin:miter;stroke-miterlimit:10;"/><line x1="466.336" y1="423.766" x2="466.336" y2="443.766" style="stroke:#3B4252;stroke-width:1;"/><polygon points="462.336,433.766,466.336,443.766,470.336,433.766,466.336,437.766" fill="#3B4252" style="stroke:#3B4252;stroke-width:1;stroke-linejoin:miter;stroke-miterlimit:10;"/><line x1="466.336" y1="786.641" x2="466.336" y2="806.641" style="stroke:#3B4252;stroke-width:1;"/><polygon points="462.336,796.641,466.336,806.641,470.336,796.641,466.336,800.641" fill="#3B4252" style="stroke:#3B4252;stroke-width:1;stroke-linejoin:miter;stroke-miterlimit:10;"/><line x1="466.336" y1="840.609" x2="466.336" y2="860.609" style="stroke:#3B4252;stroke-width:1;"/><polygon points="462.336,850.609,466.336,860.609,470.336,850.609,466.336,854.609" fill="#3B4252" style="stroke:#3B4252;stroke-width:1;stroke-linejoin:miter;stroke-miterlimit:10;"/></g></svg>