<svg xmlns="http://www.w3.org/2000/svg" xmlns:xlink="http://www.w3.org/1999/xlink" version="1.1" data-diagram-type="SEQUENCE" style="width:1734px;height:927px;background:#FFFFFF;" width="1734px" height="927px" viewBox="0 0 1734 927" zoomAndPan="magnify" preserveAspectRatio="none" contentStyleType="text/css"><?plantuml 1.2026.8?><defs/><g font-family="sans-serif" lengthAdjust="spacing"><g class="title" data-source-line="2"><text x="785.389" y="28.923" fill="#000" font-size="15" textLength="161.616" font-weight="700" font-family="'DejaVu Sans'">Handling a request</text></g><rect x="521.313" y="205.336" width="430.574" height="137.844" fill="#FAFBFC" style="stroke:#FAFBFC;stroke-width:1;" rx="4" ry="4"/><rect x="521.313" y="205.336" width="430.574" height="137.844" fill="none" style="stroke:#000;stroke-width:1;" rx="4" ry="4"/><g><title>API client</title><rect x="37.379" y="123.43" width="8" height="718.219" fill="#000" fill-opacity="0"/><line x1="40.879" y1="123.43" x2="40.879" y2="841.648" style="stroke:#8C96A8;stroke-width:1;stroke-dasharray:5,5;"/></g><g><title>ASGI server</title><rect x="329.186" y="123.43" width="8" height="718.219" fill="#000" fill-opacity="0"/><line x1="332.686" y1="123.43" x2="332.686" y2="841.648" style="stroke:#8C96A8;stroke-width:1;stroke-dasharray:5,5;"/></g><g><title>LocaleMiddleware</title><rect x="533.813" y="123.43" width="8" height="718.219" fill="#000" fill-opacity="0"/><line x1="537.313" y1="123.43" x2="537.313" y2="841.648" style="stroke:#8C96A8;stroke-width:1;stroke-dasharray:5,5;"/></g><g><title></title><rect x="532.313" y="193.336" width="10" height="602.344" fill="#FFF" style="stroke:#000;stroke-width:1;"/></g><g><title>Locale sources</title><rect x="804.805" y="123.43" width="8" height="718.219" fill="#000" fill-opacity="0"/><line x1="808.305" y1="123.43" x2="808.305" y2="841.648" style="stroke:#8C96A8;stroke-width:1;stroke-dasharray:5,5;"/></g><g><title>Negotiation</title><rect x="924.091" y="123.43" width="8" height="718.219" fill="#000" fill-opacity="0"/><line x1="927.591" y1="123.43" x2="927.591" y2="841.648" style="stroke:#8C96A8;stroke-width:1;stroke-dasharray:5,5;"/></g><g><title>Locale context</title><rect x="1042.914" y="123.43" width="8" height="718.219" fill="#000" fill-opacity="0"/><line x1="1046.414" y1="123.43" x2="1046.414" y2="841.648" style="stroke:#8C96A8;stroke-width:1;stroke-dasharray:5,5;"/></g><g><title>FastAPI routing</title><rect x="1181.973" y="123.43" width="8" height="718.219" fill="#000" fill-opacity="0"/><line x1="1185.473" y1="123.43" x2="1185.473" y2="841.648" style="stroke:#8C96A8;stroke-width:1;stroke-dasharray:5,5;"/></g><g><title></title><rect x="1180.473" y="433.086" width="10" height="342.625" fill="#FFF" style="stroke:#000;stroke-width:1;"/></g><g><title>Route handler</title><rect x="1426.156" y="123.43" width="8" height="718.219" fill="#000" fill-opacity="0"/><line x1="1429.656" y1="123.43" x2="1429.656" y2="841.648" style="stroke:#8C96A8;stroke-width:1;stroke-dasharray:5,5;"/></g><g><title></title><rect x="1424.656" y="461.055" width="10" height="139.844" fill="#FFF" style="stroke:#000;stroke-width:1;"/></g><g><title>Translator</title><rect x="1674.322" y="123.43" width="8" height="718.219" fill="#000" fill-opacity="0"/><line x1="1677.822" y1="123.43" x2="1677.822" y2="841.648" style="stroke:#8C96A8;stroke-width:1;stroke-dasharray:5,5;"/></g><text x="10" y="120.6" fill="#000" font-size="12" textLength="55.758" font-family="'DejaVu Sans'">API client</text><ellipse cx="40.879" cy="57.461" rx="8" ry="8" fill="#FFF" style="stroke:#000;stroke-width:1;"/><path d="M40.879,65.461 L40.879,92.461 M27.879,73.461 L53.879,73.461 M40.879,92.461 L27.879,107.461 M40.879,92.461 L53.879,107.461" style="stroke:#000;stroke-width:1;" fill="none"/><rect x="292.453" y="93.461" width="80.465" height="23.969" fill="#FFF" style="stroke:#000;stroke-width:1;" rx="4" ry="4"/><text x="297.453" y="109.6" fill="#000" font-size="12" textLength="70.465" font-family="'DejaVu Sans'">ASGI server</text><rect x="478.403" y="93.461" width="117.818" height="23.969" fill="#FFF" style="stroke:#000;stroke-width:1;" rx="4" ry="4"/><text x="483.403" y="109.6" fill="#000" font-size="12" textLength="107.818" font-family="'DejaVu Sans'">LocaleMiddleware</text><rect x="758.867" y="93.461" width="98.875" height="23.969" fill="#FFF" style="stroke:#000;stroke-width:1;" rx="4" ry="4"/><text x="763.867" y="109.6" fill="#000" font-size="12" textLength="88.875" font-family="'DejaVu Sans'">Locale sources</text><rect x="887.742" y="93.461" width="79.697" height="23.969" fill="#FFF" style="stroke:#000;stroke-width:1;" rx="4" ry="4"/><text x="892.742" y="109.6" fill="#000" font-size="12" textLength="69.697" font-family="'DejaVu Sans'">Negotiation</text><rect x="997.439" y="79.492" width="97.949" height="37.938" fill="#FFF" style="stroke:#000;stroke-width:1;" rx="4" ry="4"/><text x="1002.439" y="95.631" fill="#000" font-size="12" textLength="87.949" font-family="'DejaVu Sans'">Locale context</text><text x="1007.874" y="109.6" fill="#000" font-size="12" textLength="77.08" font-family="'DejaVu Sans'">(ContextVar)</text><rect x="1125.389" y="79.492" width="120.168" height="37.938" fill="#FFF" style="stroke:#000;stroke-width:1;" rx="4" ry="4"/><text x="1139.896" y="95.631" fill="#000" font-size="12" textLength="91.154" font-family="'DejaVu Sans'">FastAPI routing</text><text x="1130.389" y="109.6" fill="#000" font-size="12" textLength="110.168" font-family="'DejaVu Sans'">and dependencies</text><rect x="1382.146" y="93.461" width="95.02" height="23.969" fill="#FFF" style="stroke:#000;stroke-width:1;" rx="4" ry="4"/><text x="1387.146" y="109.6" fill="#000" font-size="12" textLength="85.02" font-family="'DejaVu Sans'">Route handler</text><rect x="1642.251" y="93.461" width="71.143" height="23.969" fill="#FFF" style="stroke:#000;stroke-width:1;" rx="4" ry="4"/><text x="1647.251" y="109.6" fill="#000" font-size="12" textLength="61.143" font-family="'DejaVu Sans'">Translator</text><text x="10" y="852.787" fill="#000" font-size="12" textLength="55.758" font-family="'DejaVu Sans'">API client</text><ellipse cx="40.879" cy="864.617" rx="8" ry="8" fill="#FFF" style="stroke:#000;stroke-width:1;"/><path d="M40.879,872.617 L40.879,899.617 M27.879,880.617 L53.879,880.617 M40.879,899.617 L27.879,914.617 M40.879,899.617 L53.879,914.617" style="stroke:#000;stroke-width:1;" fill="none"/><rect x="292.453" y="846.648" width="80.465" height="23.969" fill="#FFF" style="stroke:#000;stroke-width:1;" rx="4" ry="4"/><text x="297.453" y="862.787" fill="#000" font-size="12" textLength="70.465" font-family="'DejaVu Sans'">ASGI server</text><rect x="478.403" y="846.648" width="117.818" height="23.969" fill="#FFF" style="stroke:#000;stroke-width:1;" rx="4" ry="4"/><text x="483.403" y="862.787" fill="#000" font-size="12" textLength="107.818" font-family="'DejaVu Sans'">LocaleMiddleware</text><rect x="758.867" y="846.648" width="98.875" height="23.969" fill="#FFF" style="stroke:#000;stroke-width:1;" rx="4" ry="4"/><text x="763.867" y="862.787" fill="#000" font-size="12" textLength="88.875" font-family="'DejaVu Sans'">Locale sources</text><rect x="887.742" y="846.648" width="79.697" height="23.969" fill="#FFF" style="stroke:#000;stroke-width:1;" rx="4" ry="4"/><text x="892.742" y="862.787" fill="#000" font-size="12" textLength="69.697" font-family="'DejaVu Sans'">Negotiation</text><rect x="997.439" y="846.648" width="97.949" height="37.938" fill="#FFF" style="stroke:#000;stroke-width:1;" rx="4" ry="4"/><text x="1002.439" y="862.787" fill="#000" font-size="12" textLength="87.949" font-family="'DejaVu Sans'">Locale context</text><text x="1007.874" y="876.756" fill="#000" font-size="12" textLength="77.08" font-family="'DejaVu Sans'">(ContextVar)</text><rect x="1125.389" y="846.648" width="120.168" height="37.938" fill="#FFF" style="stroke:#000;stroke-width:1;" rx="4" ry="4"/><text x="1139.896" y="862.787" fill="#000" font-size="12" textLength="91.154" font-family="'DejaVu Sans'">FastAPI routing</text><text x="1130.389" y="876.756" fill="#000" font-size="12" textLength="110.168" font-family="'DejaVu Sans'">and dependencies</text><rect x="1382.146" y="846.648" width="95.02" height="23.969" fill="#FFF" style="stroke:#000;stroke-width:1;" rx="4" ry="4"/><text x="1387.146" y="862.787" fill="#000" font-size="12" textLength="85.02" font-family="'DejaVu Sans'">Route handler</text><rect x="1642.251" y="846.648" width="71.143" height="23.969" fill="#FFF" style="stroke:#000;stroke-width:1;" rx="4" ry="4"/><text x="1647.251" y="862.787" fill="#000" font-size="12" textLength="61.143" font-family="'DejaVu Sans'">Translator</text><polygon points="320.686,161.367,330.686,165.367,320.686,169.367,324.686,165.367" fill="#3B4252" style="stroke:#3B4252;stroke-width:1;stroke-linejoin:miter;stroke-miterlimit:10;"/><line x1="40.879" y1="165.367" x2="326.686" y2="165.367" style="stroke:#3B4252;stroke-width:1;"/><text x="47.879" y="153.553" fill="#000" font-size="12" font-weight="700" font-family="'DejaVu Sans'">1</text><text x="60.229" y="146.568" fill="#000" font-size="12" textLength="84.744" font-family="'DejaVu Sans'">GET /items/42</text><text x="60.229" y="160.537" fill="#000" font-size="12" textLength="255.457" font-family="'DejaVu Sans'">Accept-Language: hi-IN,hi;q=0.9,en;q=0.5</text><polygon points="520.313,189.336,530.313,193.336,520.313,197.336,524.313,193.336" fill="#3B4252" style="stroke:#3B4252;stroke-width:1;stroke-linejoin:miter;stroke-miterlimit:10;"/><line x1="332.686" y1="193.336" x2="526.313" y2="193.336" style="stroke:#3B4252;stroke-width:1;"/><text x="339.686" y="188.506" fill="#000" font-size="12" font-weight="700" font-family="'DejaVu Sans'">2</text><text x="352.035" y="188.506" fill="#000" font-size="12" textLength="20.619" text-decoration="underline" font-family="'DejaVu Sans'">call</text><text x="372.654" y="188.506" fill="#000" font-size="12" textLength="132.785" font-family="'DejaVu Sans'">(scope, receive, send)</text><path d="M525.313,205.336 L595.504,205.336 L595.504,211.305 L585.504,221.305 L521.313,221.305 L521.313,209.336 A4,4 0 0 1 525.313,205.336" style="stroke:#000;stroke-width:1;" fill="#FFF"/><rect x="521.313" y="205.336" width="430.574" height="137.844" fill="none" style="stroke:#000;stroke-width:1;" rx="4" ry="4"/><text x="536.313" y="217.475" fill="#000" font-size="12" textLength="29.191" font-weight="700" font-family="'DejaVu Sans'">loop</text><text x="610.504" y="218.475" fill="#000" font-size="12" textLength="325.383" font-weight="700" font-family="'DejaVu Sans'">[each source in configured order, until a match]</text><polygon points="796.305,247.273,806.305,251.273,796.305,255.273,800.305,251.273" fill="#3B4252" style="stroke:#3B4252;stroke-width:1;stroke-linejoin:miter;stroke-miterlimit:10;"/><line x1="542.313" y1="251.273" x2="802.305" y2="251.273" style="stroke:#3B4252;stroke-width:1;"/><text x="549.313" y="246.443" fill="#000" font-size="12" font-weight="700" font-family="'DejaVu Sans'">3</text><text x="561.662" y="246.443" fill="#000" font-size="12" textLength="141.299" font-family="'DejaVu Sans'">candidates(connection)</text><polygon points="553.313,275.242,543.313,279.242,553.313,283.242,549.313,279.242" fill="#3B4252" style="stroke:#3B4252;stroke-width:1;stroke-linejoin:miter;stroke-miterlimit:10;"/><line x1="547.313" y1="279.242" x2="807.305" y2="279.242" style="stroke:#3B4252;stroke-width:1;stroke-dasharray:2,2;"/><text x="559.313" y="274.412" fill="#000" font-size="12" font-weight="700" font-family="'DejaVu Sans'">4</text><text x="571.662" y="274.412" fill="#000" font-size="12" textLength="111.451" font-family="'DejaVu Sans'">["hi-IN", "hi", "en"]</text><polygon points="915.591,303.211,925.591,307.211,915.591,311.211,919.591,307.211" fill="#3B4252" style="stroke:#3B4252;stroke-width:1;stroke-linejoin:miter;stroke-miterlimit:10;"/><line x1="542.313" y1="307.211" x2="921.591" y2="307.211" style="stroke:#3B4252;stroke-width:1;"/><text x="549.313" y="302.381" fill="#000" font-size="12" font-weight="700" font-family="'DejaVu Sans'">5</text><text x="561.662" y="302.381" fill="#000" font-size="12" textLength="184.072" font-family="'DejaVu Sans'">lookup(candidates, supported)</text><polygon points="553.313,331.18,543.313,335.18,553.313,339.18,549.313,335.18" fill="#3B4252" style="stroke:#3B4252;stroke-width:1;stroke-linejoin:miter;stroke-miterlimit:10;"/><line x1="547.313" y1="335.18" x2="926.591" y2="335.18" style="stroke:#3B4252;stroke-width:1;stroke-dasharray:2,2;"/><text x="559.313" y="330.35" fill="#000" font-size="12" font-weight="700" font-family="'DejaVu Sans'">6</text><text x="571.662" y="330.35" fill="#000" font-size="12" textLength="10.939" font-family="'DejaVu Sans'">hi</text><polygon points="1034.414,373.148,1044.414,377.148,1034.414,381.148,1038.414,377.148" fill="#3B4252" style="stroke:#3B4252;stroke-width:1;stroke-linejoin:miter;stroke-miterlimit:10;"/><line x1="542.313" y1="377.148" x2="1040.414" y2="377.148" style="stroke:#3B4252;stroke-width:1;"/><text x="549.313" y="372.318" fill="#000" font-size="12" font-weight="700" font-family="'DejaVu Sans'">7</text><text x="561.662" y="372.318" fill="#000" font-size="12" textLength="333.428" font-family="'DejaVu Sans'">set(RequestLocale(hi, decided_by="accept-language"))</text><polygon points="553.313,401.117,543.313,405.117,553.313,409.117,549.313,405.117" fill="#3B4252" style="stroke:#3B4252;stroke-width:1;stroke-linejoin:miter;stroke-miterlimit:10;"/><line x1="547.313" y1="405.117" x2="1045.414" y2="405.117" style="stroke:#3B4252;stroke-width:1;stroke-dasharray:2,2;"/><text x="559.313" y="400.287" fill="#000" font-size="12" font-weight="700" font-family="'DejaVu Sans'">8</text><text x="571.662" y="400.287" fill="#000" font-size="12" textLength="33.984" font-family="'DejaVu Sans'">token</text><polygon points="1168.473,429.086,1178.473,433.086,1168.473,437.086,1172.473,433.086" fill="#3B4252" style="stroke:#3B4252;stroke-width:1;stroke-linejoin:miter;stroke-miterlimit:10;"/><line x1="542.313" y1="433.086" x2="1174.473" y2="433.086" style="stroke:#3B4252;stroke-width:1;"/><text x="549.313" y="428.256" fill="#000" font-size="12" font-weight="700" font-family="'DejaVu Sans'">9</text><text x="561.662" y="428.256" fill="#000" font-size="12" textLength="241.359" font-family="'DejaVu Sans'">app(scope, receive, send_with_headers)</text><polygon points="1412.656,457.055,1422.656,461.055,1412.656,465.055,1416.656,461.055" fill="#3B4252" style="stroke:#3B4252;stroke-width:1;stroke-linejoin:miter;stroke-miterlimit:10;"/><line x1="1190.473" y1="461.055" x2="1418.656" y2="461.055" style="stroke:#3B4252;stroke-width:1;"/><text x="1197.473" y="456.225" fill="#000" font-size="12" textLength="16.699" font-weight="700" font-family="'DejaVu Sans'">10</text><text x="1218.172" y="456.225" fill="#000" font-size="12" textLength="194.484" font-family="'DejaVu Sans'">items(translator: TranslatorDep)</text><polygon points="1057.414,485.023,1047.414,489.023,1057.414,493.023,1053.414,489.023" fill="#3B4252" style="stroke:#3B4252;stroke-width:1;stroke-linejoin:miter;stroke-miterlimit:10;"/><line x1="1051.414" y1="489.023" x2="1423.656" y2="489.023" style="stroke:#3B4252;stroke-width:1;"/><text x="1063.414" y="484.193" fill="#000" font-size="12" textLength="16.699" font-weight="700" font-family="'DejaVu Sans'">11</text><text x="1084.113" y="484.193" fill="#000" font-size="12" textLength="93.586" font-family="'DejaVu Sans'">get_translator()</text><polygon points="1412.656,512.992,1422.656,516.992,1412.656,520.992,1416.656,516.992" fill="#3B4252" style="stroke:#3B4252;stroke-width:1;stroke-linejoin:miter;stroke-miterlimit:10;"/><line x1="1046.414" y1="516.992" x2="1418.656" y2="516.992" style="stroke:#3B4252;stroke-width:1;stroke-dasharray:2,2;"/><text x="1053.414" y="512.162" fill="#000" font-size="12" textLength="16.699" font-weight="700" font-family="'DejaVu Sans'">12</text><text x="1074.113" y="512.162" fill="#000" font-size="12" textLength="81.445" font-family="'DejaVu Sans'">Translator(hi)</text><polygon points="1665.822,540.961,1675.822,544.961,1665.822,548.961,1669.822,544.961" fill="#3B4252" style="stroke:#3B4252;stroke-width:1;stroke-linejoin:miter;stroke-miterlimit:10;"/><line x1="1434.656" y1="544.961" x2="1671.822" y2="544.961" style="stroke:#3B4252;stroke-width:1;"/><text x="1441.656" y="540.131" fill="#000" font-size="12" textLength="16.699" font-weight="700" font-family="'DejaVu Sans'">13</text><text x="1462.355" y="540.131" fill="#000" font-size="12" textLength="203.467" font-family="'DejaVu Sans'">gettext("Item {id} found", id=42)</text><polygon points="1445.656,568.93,1435.656,572.93,1445.656,576.93,1441.656,572.93" fill="#3B4252" style="stroke:#3B4252;stroke-width:1;stroke-linejoin:miter;stroke-miterlimit:10;"/><line x1="1439.656" y1="572.93" x2="1676.822" y2="572.93" style="stroke:#3B4252;stroke-width:1;stroke-dasharray:2,2;"/><text x="1451.656" y="568.1" fill="#000" font-size="12" textLength="16.699" font-weight="700" font-family="'DejaVu Sans'">14</text><text x="1472.355" y="568.1" fill="#000" font-size="12" textLength="88.951" font-family="'DejaVu Sans'">translated text</text><polygon points="1201.473,596.898,1191.473,600.898,1201.473,604.898,1197.473,600.898" fill="#3B4252" style="stroke:#3B4252;stroke-width:1;stroke-linejoin:miter;stroke-miterlimit:10;"/><line x1="1195.473" y1="600.898" x2="1423.656" y2="600.898" style="stroke:#3B4252;stroke-width:1;stroke-dasharray:2,2;"/><text x="1207.473" y="596.068" fill="#000" font-size="12" textLength="16.699" font-weight="700" font-family="'DejaVu Sans'">15</text><text x="1228.172" y="596.068" fill="#000" font-size="12" textLength="95.947" font-family="'DejaVu Sans'">response model</text><polygon points="553.313,624.867,543.313,628.867,553.313,632.867,549.313,628.867" fill="#3B4252" style="stroke:#3B4252;stroke-width:1;stroke-linejoin:miter;stroke-miterlimit:10;"/><line x1="547.313" y1="628.867" x2="1179.473" y2="628.867" style="stroke:#3B4252;stroke-width:1;"/><text x="559.313" y="624.037" fill="#000" font-size="12" textLength="16.699" font-weight="700" font-family="'DejaVu Sans'">16</text><text x="580.012" y="624.037" fill="#000" font-size="12" textLength="153.199" font-family="'DejaVu Sans'">send(http.response.start)</text><line x1="542.313" y1="670.805" x2="584.313" y2="670.805" style="stroke:#3B4252;stroke-width:1;"/><line x1="584.313" y1="670.805" x2="584.313" y2="683.805" style="stroke:#3B4252;stroke-width:1;"/><line x1="543.313" y1="683.805" x2="584.313" y2="683.805" style="stroke:#3B4252;stroke-width:1;"/><polygon points="553.313,679.805,543.313,683.805,553.313,687.805,549.313,683.805" fill="#3B4252" style="stroke:#3B4252;stroke-width:1;stroke-linejoin:miter;stroke-miterlimit:10;"/><text x="549.313" y="658.99" fill="#000" font-size="12" textLength="16.699" font-weight="700" font-family="'DejaVu Sans'">17</text><text x="570.012" y="652.006" fill="#000" font-size="12" textLength="156.475" font-family="'DejaVu Sans'">add Content-Language: hi</text><text x="570.012" y="665.975" fill="#000" font-size="12" textLength="231.293" font-family="'DejaVu Sans'">merge Vary: Accept-Language, Cookie</text><polygon points="343.686,707.773,333.686,711.773,343.686,715.773,339.686,711.773" fill="#3B4252" style="stroke:#3B4252;stroke-width:1;stroke-linejoin:miter;stroke-miterlimit:10;"/><line x1="337.686" y1="711.773" x2="531.313" y2="711.773" style="stroke:#3B4252;stroke-width:1;"/><text x="349.686" y="706.943" fill="#000" font-size="12" textLength="16.699" font-weight="700" font-family="'DejaVu Sans'">18</text><text x="370.385" y="706.943" fill="#000" font-size="12" textLength="153.199" font-family="'DejaVu Sans'">send(http.response.start)</text><polygon points="553.313,735.742,543.313,739.742,553.313,743.742,549.313,739.742" fill="#3B4252" style="stroke:#3B4252;stroke-width:1;stroke-linejoin:miter;stroke-miterlimit:10;"/><line x1="547.313" y1="739.742" x2="1179.473" y2="739.742" style="stroke:#3B4252;stroke-width:1;"/><text x="559.313" y="734.912" fill="#000" font-size="12" textLength="16.699" font-weight="700" font-family="'DejaVu Sans'">19</text><text x="580.012" y="734.912" fill="#000" font-size="12" textLength="154.928" font-family="'DejaVu Sans'">send(http.response.body)</text><polygon points="343.686,763.711,333.686,767.711,343.686,771.711,339.686,767.711" fill="#3B4252" style="stroke:#3B4252;stroke-width:1;stroke-linejoin:miter;stroke-miterlimit:10;"/><line x1="337.686" y1="767.711" x2="531.313" y2="767.711" style="stroke:#3B4252;stroke-width:1;"/><text x="349.686" y="762.881" fill="#000" font-size="12" textLength="16.699" font-weight="700" font-family="'DejaVu Sans'">20</text><text x="370.385" y="762.881" fill="#000" font-size="12" textLength="154.928" font-family="'DejaVu Sans'">send(http.response.body)</text><polygon points="1034.414,791.68,1044.414,795.68,1034.414,799.68,1038.414,795.68" fill="#3B4252" style="stroke:#3B4252;stroke-width:1;stroke-linejoin:miter;stroke-miterlimit:10;"/><line x1="542.313" y1="795.68" x2="1040.414" y2="795.68" style="stroke:#3B4252;stroke-width:1;"/><text x="549.313" y="790.85" fill="#000" font-size="12" textLength="16.699" font-weight="700" font-family="'DejaVu Sans'">21</text><text x="570.012" y="790.85" fill="#000" font-size="12" textLength="74.004" font-family="'DejaVu Sans'">reset(token)</text><polygon points="51.879,819.648,41.879,823.648,51.879,827.648,47.879,823.648" fill="#3B4252" style="stroke:#3B4252;stroke-width:1;stroke-linejoin:miter;stroke-miterlimit:10;"/><line x1="45.879" y1="823.648" x2="331.686" y2="823.648" style="stroke:#3B4252;stroke-width:1;stroke-dasharray:2,2;"/><text x="57.879" y="818.818" fill="#000" font-size="12" textLength="16.699" font-weight="700" font-family="'DejaVu Sans'">22</text><text x="78.578" y="818.818" fill="#000" font-size="12" textLength="181.734" font-family="'DejaVu Sans'">200 OK, Content-Language: hi</text></g></svg>