<svg xmlns="http://www.w3.org/2000/svg" xmlns:xlink="http://www.w3.org/1999/xlink" version="1.1" data-diagram-type="DESCRIPTION" style="width:1009px;height:1026px;background:#FFFFFF;" width="1009px" height="1026px" viewBox="0 0 1009 1026" zoomAndPan="magnify" preserveAspectRatio="none" contentStyleType="text/css"><?plantuml 1.2026.8?><defs/><g font-family="sans-serif" lengthAdjust="spacing"><g class="title" data-source-line="2"><text x="461.893" y="28.923" fill="#000" font-size="15" textLength="83.547" font-weight="700" font-family="'DejaVu Sans'">Use cases</text></g><!--cluster fastapi-locale--><g class="cluster" data-qualified-name="fastapi-locale" id="ent0005" data-source-line="10"><rect x="113.76" y="50.461" width="750.68" height="748" fill="#FFF" style="stroke:#000;stroke-width:1;" rx="4" ry="4"/><text x="443.201" y="63.6" fill="#000" font-size="12" textLength="91.799" font-weight="700" font-family="'DejaVu Sans'">fastapi-locale</text></g><!--entity UC01--><g class="entity" data-qualified-name="fastapi-locale.UC01" id="ent0006" data-source-line="11"><ellipse cx="230.641" cy="111.462" rx="90.981" ry="29.411" fill="#FFF" style="stroke:#000;stroke-width:1;"/><text x="212.26" y="96.102" fill="#000" font-size="12" textLength="36.762" font-family="'DejaVu Sans'">UC-01</text><text x="164.629" y="110.071" fill="#000" font-size="12" textLength="132.023" font-family="'DejaVu Sans'">Receive a response in</text><text x="160.841" y="124.04" fill="#000" font-size="12" textLength="139.6" font-family="'DejaVu Sans'">the preferred language</text></g><!--entity UC02--><g class="entity" data-qualified-name="fastapi-locale.UC02" id="ent0007" data-source-line="12"><ellipse cx="230.641" cy="203.457" rx="100.881" ry="27.896" fill="#FFF" style="stroke:#000;stroke-width:1;"/><text x="212.26" y="189.473" fill="#000" font-size="12" textLength="36.762" font-family="'DejaVu Sans'">UC-02</text><text x="148.261" y="203.441" fill="#000" font-size="12" textLength="164.76" font-family="'DejaVu Sans'">Receive validation errors in</text><text x="160.841" y="217.41" fill="#000" font-size="12" textLength="139.6" font-family="'DejaVu Sans'">the preferred language</text></g><!--entity UC08--><g class="entity" data-qualified-name="fastapi-locale.UC08" id="ent0008" data-source-line="13"><ellipse cx="230.643" cy="294.458" rx="91.783" ry="28.107" fill="#FFF" style="stroke:#000;stroke-width:1;"/><text x="212.262" y="280.364" fill="#000" font-size="12" textLength="36.762" font-family="'DejaVu Sans'">UC-08</text><text x="156.548" y="294.332" fill="#000" font-size="12" textLength="148.189" font-family="'DejaVu Sans'">Read API documentation</text><text x="166.448" y="308.301" fill="#000" font-size="12" textLength="128.391" font-family="'DejaVu Sans'">in a chosen language</text></g><!--entity RES--><g class="entity" data-qualified-name="fastapi-locale.RES" id="ent0009" data-source-line="14"><ellipse cx="512.368" cy="224.466" rx="60.848" ry="22.005" fill="#FFF" style="stroke:#000;stroke-width:1;"/><text x="477.047" y="219.883" fill="#000" font-size="12" textLength="70.641" font-family="'DejaVu Sans'">Resolve the</text><text x="469.849" y="233.852" fill="#000" font-size="12" textLength="85.037" font-family="'DejaVu Sans'">request locale</text></g><!--entity UC05--><g class="entity" data-qualified-name="fastapi-locale.UC05" id="ent0010" data-source-line="15"><ellipse cx="769.833" cy="269.463" rx="78.613" ry="27.002" fill="#FFF" style="stroke:#000;stroke-width:1;"/><text x="751.452" y="256.65" fill="#000" font-size="12" textLength="36.762" font-family="'DejaVu Sans'">UC-05</text><text x="703.824" y="270.618" fill="#000" font-size="12" textLength="132.018" font-family="'DejaVu Sans'">Use a signed-in user's</text><text x="722.138" y="284.587" fill="#000" font-size="12" textLength="95.391" font-family="'DejaVu Sans'">saved language</text></g><!--entity UC03--><g class="entity" data-qualified-name="fastapi-locale.UC03" id="ent0011" data-source-line="16"><ellipse cx="230.637" cy="386.457" rx="79.387" ry="28.576" fill="#FFF" style="stroke:#000;stroke-width:1;"/><text x="212.256" y="372.101" fill="#000" font-size="12" textLength="36.762" font-family="'DejaVu Sans'">UC-03</text><text x="168.056" y="386.07" fill="#000" font-size="12" textLength="125.162" font-family="'DejaVu Sans'">Translate a message</text><text x="173.786" y="400.039" fill="#000" font-size="12" textLength="113.701" font-family="'DejaVu Sans'">in application code</text></g><!--entity UC04--><g class="entity" data-qualified-name="fastapi-locale.UC04" id="ent0012" data-source-line="17"><ellipse cx="230.644" cy="479.465" rx="96.404" ry="29.284" fill="#FFF" style="stroke:#000;stroke-width:1;"/><text x="212.263" y="464.164" fill="#000" font-size="12" textLength="36.762" font-family="'DejaVu Sans'">UC-04</text><text x="156.183" y="478.132" fill="#000" font-size="12" textLength="148.922" font-family="'DejaVu Sans'">Put translatable text in a</text><text x="156.915" y="492.101" fill="#000" font-size="12" textLength="147.457" font-family="'DejaVu Sans'">model or HTTPException</text></g><!--entity UC07--><g class="entity" data-qualified-name="fastapi-locale.UC07" id="ent0013" data-source-line="18"><ellipse cx="230.642" cy="571.462" rx="65.032" ry="27.371" fill="#FFF" style="stroke:#000;stroke-width:1;"/><text x="212.261" y="558.654" fill="#000" font-size="12" textLength="36.762" font-family="'DejaVu Sans'">UC-07</text><text x="177.31" y="572.623" fill="#000" font-size="12" textLength="106.664" font-family="'DejaVu Sans'">Test routes under</text><text x="190.649" y="586.592" fill="#000" font-size="12" textLength="79.986" font-family="'DejaVu Sans'">a fixed locale</text></g><!--entity UC06--><g class="entity" data-qualified-name="fastapi-locale.UC06" id="ent0014" data-source-line="19"><ellipse cx="230.641" cy="661.465" rx="79.161" ry="27.434" fill="#FFF" style="stroke:#000;stroke-width:1;"/><text x="212.26" y="648.222" fill="#000" font-size="12" textLength="36.762" font-family="'DejaVu Sans'">UC-06</text><text x="165.329" y="662.191" fill="#000" font-size="12" textLength="130.623" font-family="'DejaVu Sans'">Extract, translate and</text><text x="179.808" y="676.159" fill="#000" font-size="12" textLength="101.666" font-family="'DejaVu Sans'">compile catalogs</text></g><!--entity UC09--><g class="entity" data-qualified-name="fastapi-locale.UC09" id="ent0015" data-source-line="20"><ellipse cx="230.643" cy="753.457" rx="59.173" ry="29.286" fill="#FFF" style="stroke:#000;stroke-width:1;"/><text x="212.262" y="739.087" fill="#000" font-size="12" textLength="36.762" font-family="'DejaVu Sans'">UC-09</text><text x="185.866" y="753.055" fill="#000" font-size="12" textLength="89.555" font-family="'DejaVu Sans'">Verify catalogs</text><text x="187.922" y="767.024" fill="#000" font-size="12" textLength="85.441" font-family="'DejaVu Sans'">are up to date</text></g><!--entity Client--><g class="entity" data-qualified-name="Client" id="ent0001" data-source-line="5"><ellipse cx="38.879" cy="174.981" rx="8" ry="8" fill="#FFF" style="stroke:#000;stroke-width:1;"/><path d="M38.879,182.981 L38.879,209.981 M25.879,190.981 L51.879,190.981 M38.879,209.981 L25.879,224.981 M38.879,209.981 L51.879,224.981" style="stroke:#000;stroke-width:1;" fill="none"/><text x="11" y="238.12" fill="#000" font-size="12" textLength="55.758" font-family="'DejaVu Sans'">API client</text></g><!--entity Dev--><g class="entity" data-qualified-name="Dev" id="ent0002" data-source-line="6"><ellipse cx="952.886" cy="450.981" rx="8" ry="8" fill="#FFF" style="stroke:#000;stroke-width:1;"/><path d="M952.886,458.981 L952.886,485.981 M939.886,466.981 L965.886,466.981 M952.886,485.981 L939.886,500.981 M952.886,485.981 L965.886,500.981" style="stroke:#000;stroke-width:1;" fill="none"/><text x="911.44" y="514.12" fill="#000" font-size="12" textLength="82.893" font-family="'DejaVu Sans'">API developer</text></g><!--entity Tr--><g class="entity" data-qualified-name="Tr" id="ent0003" data-source-line="7"><ellipse cx="512.371" cy="822.981" rx="8" ry="8" fill="#FFF" style="stroke:#000;stroke-width:1;"/><path d="M512.371,830.981 L512.371,857.981 M499.371,838.981 L525.371,838.981 M512.371,857.981 L499.371,872.981 M512.371,857.981 L525.371,872.981" style="stroke:#000;stroke-width:1;" fill="none"/><text x="481.8" y="886.12" fill="#000" font-size="12" textLength="61.143" font-family="'DejaVu Sans'">Translator</text></g><!--entity CI--><g class="entity" data-qualified-name="CI" id="ent0004" data-source-line="8"><ellipse cx="512.37" cy="946.96" rx="8" ry="8" fill="#FFF" style="stroke:#000;stroke-width:1;"/><path d="M512.37,954.96 L512.37,981.96 M499.37,962.96 L525.37,962.96 M512.37,981.96 L499.37,996.96 M512.37,981.96 L525.37,996.96" style="stroke:#000;stroke-width:1;" fill="none"/><text x="480.7" y="1010.098" fill="#000" font-size="12" textLength="63.34" font-family="'DejaVu Sans'">CI pipeline</text><text x="483.272" y="935.13" fill="#000" font-size="12" textLength="58.195" font-style="italic" font-family="'DejaVu Sans'">«system»</text></g><!--link Client to UC01--><g class="link" data-entity-1="ent0001" data-entity-2="ent0006" id="lnk16" data-source-line="23" data-link-type="dependency"><path d="M67.18,182.671 C78.7,174.471 92.5,165.381 105.76,158.461 C124.62,148.621 141.344,141.495 160.984,134.185" style="stroke:#3B4252;stroke-width:1;" fill="none" id="Client-to-UC01"/><polygon points="165.67,132.441,155.84,131.832,160.984,134.185,158.631,139.329,165.67,132.441" fill="#3B4252" style="stroke:#3B4252;stroke-width:1;stroke-linejoin:miter;stroke-miterlimit:10;"/></g><!--link Client to UC02--><g class="link" data-entity-1="ent0001" data-entity-2="ent0007" id="lnk17" data-source-line="24" data-link-type="dependency"><path d="M67.07,203.461 C83.77,203.461 101.32,203.461 124.29,203.461" style="stroke:#3B4252;stroke-width:1;" fill="none" id="Client-to-UC02"/><polygon points="129.29,203.461,120.29,199.461,124.29,203.461,120.29,207.461,129.29,203.461" fill="#3B4252" style="stroke:#3B4252;stroke-width:1;stroke-linejoin:miter;stroke-miterlimit:10;"/></g><!--link Client to UC08--><g class="link" data-entity-1="ent0001" data-entity-2="ent0008" id="lnk18" data-source-line="25" data-link-type="dependency"><path d="M67.15,224.301 C78.67,232.501 92.47,241.591 105.76,248.461 C124.71,258.261 141.541,265.313 161.271,272.483" style="stroke:#3B4252;stroke-width:1;" fill="none" id="Client-to-UC08"/><polygon points="165.97,274.191,158.877,267.358,161.271,272.483,156.145,274.876,165.97,274.191" fill="#3B4252" style="stroke:#3B4252;stroke-width:1;stroke-linejoin:miter;stroke-miterlimit:10;"/></g><!--link UC01 to RES--><g class="link" data-entity-1="ent0006" data-entity-2="ent0009" id="lnk19" data-source-line="26" data-link-type="dependency"><path d="M288.58,134.461 C342.74,156.341 418.214,186.828 466.164,206.198" style="stroke:#3B4252;stroke-width:1;stroke-dasharray:7,7;" fill="none" id="UC01-to-RES"/><polygon points="470.8,208.071,463.953,200.991,466.164,206.198,460.957,208.409,470.8,208.071" fill="#3B4252" style="stroke:#3B4252;stroke-width:1;stroke-linejoin:miter;stroke-miterlimit:10;"/><text x="362.52" y="161.71" fill="#000" font-size="12" textLength="58.16" font-family="'DejaVu Sans'">«include»</text></g><!--link UC02 to RES--><g class="link" data-entity-1="ent0007" data-entity-2="ent0009" id="lnk20" data-source-line="27" data-link-type="dependency"><path d="M328.3,210.721 C369.51,213.811 411.294,216.946 447.244,219.646" style="stroke:#3B4252;stroke-width:1;stroke-dasharray:7,7;" fill="none" id="UC02-to-RES"/><polygon points="452.23,220.021,443.555,215.358,447.244,219.646,442.956,223.336,452.23,220.021" fill="#3B4252" style="stroke:#3B4252;stroke-width:1;stroke-linejoin:miter;stroke-miterlimit:10;"/><text x="362.52" y="210.47" fill="#000" font-size="12" textLength="58.16" font-family="'DejaVu Sans'">«include»</text></g><!--link UC08 to RES--><g class="link" data-entity-1="ent0008" data-entity-2="ent0009" id="lnk21" data-source-line="28" data-link-type="dependency"><path d="M302.59,276.711 C352.28,264.271 412.59,249.185 456.81,238.115" style="stroke:#3B4252;stroke-width:1;stroke-dasharray:7,7;" fill="none" id="UC08-to-RES"/><polygon points="461.66,236.901,451.958,235.206,456.81,238.115,453.901,242.967,461.66,236.901" fill="#3B4252" style="stroke:#3B4252;stroke-width:1;stroke-linejoin:miter;stroke-miterlimit:10;"/><text x="362.52" y="244.24" fill="#000" font-size="12" textLength="58.16" font-family="'DejaVu Sans'">«include»</text></g><!--reverse link RES to UC05--><g class="link" data-entity-1="ent0009" data-entity-2="ent0010" id="lnk23" data-source-line="29" data-link-type="dependency"><path d="M572.464,234.868 C610.844,241.628 657.73,249.891 699.17,257.191" style="stroke:#3B4252;stroke-width:1;stroke-dasharray:7,7;" fill="none" id="RES-backto-UC05"/><polygon points="567.54,234.001,575.71,239.501,572.464,234.868,577.097,231.623,567.54,234.001" fill="#3B4252" style="stroke:#3B4252;stroke-width:1;stroke-linejoin:miter;stroke-miterlimit:10;"/><text x="604.22" y="237.44" fill="#000" font-size="12" textLength="56.479" font-family="'DejaVu Sans'">«extend»</text></g><!--reverse link UC03 to Dev--><g class="link" data-entity-1="ent0011" data-entity-2="ent0002" id="lnk24" data-source-line="31" data-link-type="dependency"><path d="M315.197,388.4 C438.417,392.58 679,406.451 881.44,453.461 C891.22,455.731 901.49,458.991 911.07,462.431" style="stroke:#3B4252;stroke-width:1;" fill="none" id="UC03-backto-Dev"/><polygon points="310.2,388.231,319.059,392.534,315.197,388.4,319.33,384.538,310.2,388.231" fill="#3B4252" style="stroke:#3B4252;stroke-width:1;stroke-linejoin:miter;stroke-miterlimit:10;"/></g><!--reverse link UC04 to Dev--><g class="link" data-entity-1="ent0012" data-entity-2="ent0002" id="lnk25" data-source-line="32" data-link-type="dependency"><path d="M332.28,479.461 C491.47,479.461 799.31,479.461 911.04,479.461" style="stroke:#3B4252;stroke-width:1;" fill="none" id="UC04-backto-Dev"/><polygon points="327.28,479.461,336.28,483.461,332.28,479.461,336.28,475.461,327.28,479.461" fill="#3B4252" style="stroke:#3B4252;stroke-width:1;stroke-linejoin:miter;stroke-miterlimit:10;"/></g><!--reverse link UC05 to Dev--><g class="link" data-entity-1="ent0010" data-entity-2="ent0002" id="lnk26" data-source-line="33" data-link-type="dependency"><path d="M805.698,297.677 C829.018,317.267 857.15,342.741 881.44,371.461 C899.87,393.261 917.42,420.131 930.39,441.621" style="stroke:#3B4252;stroke-width:1;" fill="none" id="UC05-backto-Dev"/><polygon points="801.87,294.461,806.188,303.313,805.698,297.677,811.334,297.187,801.87,294.461" fill="#3B4252" style="stroke:#3B4252;stroke-width:1;stroke-linejoin:miter;stroke-miterlimit:10;"/></g><!--reverse link UC07 to Dev--><g class="link" data-entity-1="ent0013" data-entity-2="ent0002" id="lnk27" data-source-line="34" data-link-type="dependency"><path d="M298.32,562.947 C442.1,544.577 791.27,499.981 911.33,484.641" style="stroke:#3B4252;stroke-width:1;" fill="none" id="UC07-backto-Dev"/><polygon points="293.36,563.581,302.794,566.408,298.32,562.947,301.78,558.473,293.36,563.581" fill="#3B4252" style="stroke:#3B4252;stroke-width:1;stroke-linejoin:miter;stroke-miterlimit:10;"/></g><!--reverse link UC06 to Dev--><g class="link" data-entity-1="ent0014" data-entity-2="ent0002" id="lnk28" data-source-line="35" data-link-type="dependency"><path d="M309.908,650.953 C430.798,633.413 673.43,592.321 872.44,520.461 C885.43,515.771 899,509.391 911.16,503.051" style="stroke:#3B4252;stroke-width:1;" fill="none" id="UC06-backto-Dev"/><polygon points="304.96,651.671,314.441,654.337,309.908,650.953,313.292,646.42,304.96,651.671" fill="#3B4252" style="stroke:#3B4252;stroke-width:1;stroke-linejoin:miter;stroke-miterlimit:10;"/></g><!--reverse link UC06 to Tr--><g class="link" data-entity-1="ent0014" data-entity-2="ent0003" id="lnk29" data-source-line="36" data-link-type="dependency"><path d="M288.56,684.069 C304.27,691.039 316.69,697.351 331.52,706.461 C362.28,725.361 438.7,789.371 481.36,825.711" style="stroke:#3B4252;stroke-width:1;" fill="none" id="UC06-backto-Tr"/><polygon points="283.99,682.041,290.594,689.347,288.56,684.069,293.839,682.035,283.99,682.041" fill="#3B4252" style="stroke:#3B4252;stroke-width:1;stroke-linejoin:miter;stroke-miterlimit:10;"/></g><!--reverse link UC09 to CI--><g class="link" data-entity-1="ent0015" data-entity-2="ent0004" id="lnk30" data-source-line="37" data-link-type="dependency"><path d="M267.694,781.168 C321.934,822.868 427.1,903.691 480.51,944.741" style="stroke:#3B4252;stroke-width:1;" fill="none" id="UC09-backto-CI"/><polygon points="263.73,778.121,268.427,786.778,267.694,781.168,273.303,780.435,263.73,778.121" fill="#3B4252" style="stroke:#3B4252;stroke-width:1;stroke-linejoin:miter;stroke-miterlimit:10;"/></g></g></svg>